# xmcd
#
# Track frame offsets:
#	150
#	5253
#	22354
#	39637
#	57749
#	72086
#	87330
#	100646
#	117183
#	133591
#	154877
#	173890
#	191969
#	206666
#	223836
#	240602
#	253820
#	268298
#	283115
#	300359
#
# Disc length: 4233 seconds
#
# Revision: 1
# Processed by: cddbd v1.5.2PL0 Copyright (c) Steve Scherf et al.
# Submitted via: audiograbber 1.83.01
#
DISCID=32108714
DTITLE=Matthias Reim - Unendlich
DYEAR=2013
DGENRE=Schlager
TTITLE0=Unendlich (Intro)
TTITLE1=Am Fenster
TTITLE2=Einsamer Stern
TTITLE3=Verdammt Für Alle Zeit
TTITLE4=Unterm Mond
TTITLE5=Einfach Du
TTITLE6=Blinder Passagier
TTITLE7=Du Kannst Auf Mich Zählen
TTITLE8=Du Bist Wie Ein Magnet
TTITLE9=Schwanenkönig
TTITLE10=Dann Bist Es Du
TTITLE11=Irgendwo Da Draußen
TTITLE12=Alles Egal
TTITLE13=Ich Gebe Niemals Auf
TTITLE14=Wir Sind Unendlich
TTITLE15=Über Sieben Brücken
TTITLE16=Wenn Ein Mensch Lebt
TTITLE17=Zeit Die Nie Vergeht
TTITLE18=Als Ich Fort Ging
TTITLE19=Am Fenster (engl. Version)
EXTD=
EXTT0=
EXTT1=
EXTT2=
EXTT3=
EXTT4=
EXTT5=
EXTT6=
EXTT7=
EXTT8=
EXTT9=
EXTT10=
EXTT11=
EXTT12=
EXTT13=
EXTT14=
EXTT15=
EXTT16=
EXTT17=
EXTT18=
EXTT19=
PLAYORDER=
